<?xml version="1.0" standalone="no"?><!DOCTYPE svg PUBLIC "-//W3C//DTD SVG 1.1//EN" "http://www.w3.org/Graphics/SVG/1.1/DTD/svg11.dtd"><svg viewBox="0 0 1024 1024" version="1.1" xmlns="http://www.w3.org/2000/svg"  xmlns:xlink="http://www.w3.org/1999/xlink" ><path d="M766.4 499.2c-19.2-49.6-67.2-83.2-120-83.2H624v-48c0-17.6-14.4-32-32-32s-32 14.4-32 32v48h-96v-48c0-17.6-14.4-32-32-32s-32 14.4-32 32v48h-24c-52.8 0-100.8 33.6-120 83.2l-96 256c-4.8 14.4-8 28.8-8 44.8 0 70.4 57.6 128 128 128h462.4c16 0 30.4-3.2 44.8-8 65.6-24 99.2-99.2 75.2-164.8l-96-256z m0 360c-8 3.2-14.4 4.8-22.4 4.8h-464c-35.2 0-64-28.8-64-64 0-8 1.6-16 4.8-22.4l96-256c9.6-25.6 33.6-41.6 59.2-41.6h270.4c27.2 0 51.2 16 59.2 41.6l96 256c14.4 33.6-3.2 70.4-35.2 81.6z" ></path><path d="M512 544c-52.8 0-96 43.2-96 96s43.2 96 96 96 96-43.2 96-96-43.2-96-96-96z m0 128c-17.6 0-32-14.4-32-32s14.4-32 32-32 32 14.4 32 32-14.4 32-32 32zM920 209.6l-1.6-1.6C835.2 139.2 680 96 512 96 342.4 96 187.2 139.2 105.6 208c-16 12.8-25.6 30.4-25.6 51.2V352c0 35.2 28.8 64 64 64h73.6c22.4 0 44.8-12.8 56-32 1.6-1.6 4.8-9.6 8-16 1.6-4.8 4.8-8 4.8-9.6 6.4-12.8 12.8-22.4 20.8-32 40-48 105.6-72 204.8-73.6 99.2 0 168 22.4 208 70.4 8 9.6 14.4 19.2 20.8 32 1.6 4.8 4.8 8 6.4 14.4 1.6 3.2 3.2 8 4.8 11.2 11.2 22.4 33.6 36.8 57.6 36.8H880c35.2 0 64-28.8 64-64v-92.8c0-19.2-8-35.2-24-51.2zM880 352h-68.8c0-1.6-4.8-9.6-4.8-11.2l-12.8 4.8 12.8-4.8s0-1.6-1.6-1.6l-6.4-14.4c-8-16-17.6-30.4-28.8-43.2-52.8-64-137.6-94.4-257.6-94.4-118.4 1.6-201.6 33.6-254.4 97.6-9.6 12.8-19.2 25.6-27.2 43.2-1.6 1.6-3.2 6.4-4.8 11.2-3.2 4.8-6.4 11.2-6.4 14.4H144v-92.8l1.6-1.6C216 198.4 360 160 512 160c150.4 0 292.8 36.8 363.2 94.4 3.2 3.2 4.8 4.8 4.8 6.4V352z" ></path></svg>